<svg xmlns="http://www.w3.org/2000/svg" width="64" height="64" fill="none">
  <path fill="#4D5AE5" d="M63.95 9.05a1.07 1.07 0 0 0-.86-.73l-3.82-.55-1.71-3.47c-.36-.73-1.56-.73-1.92 0l-1.7 3.47-3.83.55a1.07 1.07 0 0 0-.59 1.82l2.77 2.7-.66 3.8a1.07 1.07 0 0 0 1.55 1.13l3.42-1.8 3.42 1.8a1.07 1.07 0 0 0 1.55-1.13l-.66-3.8 2.77-2.7c.29-.28.4-.7.27-1.1Zm-4.93 2.65c-.25.25-.36.6-.3.95l.38 2.22-2-1.05a1.06 1.06 0 0 0-1 0l-2 1.05.38-2.22c.06-.35-.05-.7-.3-.95l-1.62-1.58 2.23-.32c.35-.05.65-.27.8-.59l1-2.02 1 2.02c.16.32.46.54.81.59l2.24.32-1.62 1.58ZM52.27 41.04h-2.14v2.14h2.14v-2.14ZM52.27 45.31h-2.14v2.13h2.14v-2.13ZM54.4 43.18h-2.13v2.13h2.13v-2.13ZM50.13 43.18H48v2.13h2.13v-2.13ZM44.8 52.78h-2.13v2.13h2.13v-2.13ZM44.8 57.04h-2.13v2.14h2.13v-2.14ZM46.93 54.91H44.8v2.13h2.13v-2.13Z"/>
  <path fill="#4D5AE5" d="M42.67 54.91h-2.14v2.13h2.14v-2.13ZM32 48.51h-2.13v2.13H32v-2.13ZM32 52.78h-2.13v2.13H32v-2.13ZM34.13 50.64H32v2.14h2.13v-2.14ZM29.87 50.64h-2.14v2.14h2.14v-2.14ZM11.73 12.24H9.6v2.14h2.13v-2.14ZM11.73 16.51H9.6v2.13h2.13v-2.13ZM13.87 14.38h-2.14v2.13h2.14v-2.13ZM9.6 14.38H7.47v2.13H9.6v-2.13Z"/>
  <path fill="#2E2F42" d="M49.43 28.32a3.55 3.55 0 0 0-2.38-1.41 3.55 3.55 0 0 0-2.68.7l-2.5 1.92-3.8 2.84-2.71-1.08a13.87 13.87 0 0 0 8.23-12.64c0-7.65-6.25-13.87-13.93-13.87a13.91 13.91 0 0 0-13.92 13.87c0 2.77.83 5.34 2.24 7.51l-5.53-.05-.05.01c-.1 0-.21.03-.31.07l-.08.02c-.01 0-.03 0-.04.02L5.5 29.42l-3.78 1.82a3.56 3.56 0 0 0 3.55 6.18l2.77-1.47 4.53-2.34 2.71-.02L4.4 44.42 1.71 47.1a3.3 3.3 0 0 0 0 4.72 3.33 3.33 0 0 0 4.71 0l2.63-2.62 3.48-2.6 1.8 1.8-3.52 3.5-2.68 2.67a3.3 3.3 0 0 0 0 4.71 3.34 3.34 0 0 0 4.72 0l2.68-2.66 4.29-4.27 2.02-2-.01-.01.04-.03 10.34-11.32 6.94.99a1.01 1.01 0 0 0 .52-.07l.1-.04.12-.06 6.42-4.27c.03-.01.04-.04.06-.05.03-.02.06-.03.08-.06l2.55-2.38a3.56 3.56 0 0 0 .42-4.72ZM4.26 35.54c-.35.19-.74.22-1.12.1a1.43 1.43 0 0 1-.42-2.52l2.63-1.26.63 1.85.26.78-1.98 1.05Zm7-3.66-3.1 1.6L7.65 32l-.37-1.07 4.05-2-.07 2.96Zm30.2-13.24c0 1.84-.44 3.57-1.2 5.12l-8.37-3.8a3.72 3.72 0 0 0-1.57-2.77l2.92-9.72a11.76 11.76 0 0 1 8.21 11.17Zm-23.58 0A11.78 11.78 0 0 1 31.16 7.01l-2.87 9.51h-.11a3.74 3.74 0 0 0-3.75 3.72 3.74 3.74 0 0 0 6.98 1.85l7.73 3.5a11.78 11.78 0 0 1-21.26-6.95Zm11.9 1.6a1.6 1.6 0 0 1-3.22 0c0-.88.73-1.6 1.62-1.6.89 0 1.6.72 1.6 1.6ZM4.94 50.3c-.47.47-1.24.47-1.7 0a1.19 1.19 0 0 1 0-1.68l1.92-1.92 1.7 1.7-1.92 1.9Zm6.43 7.47c-.48.47-1.24.47-1.71 0a1.19 1.19 0 0 1 0-1.69l1.92-1.92.8.8.9.9-1.91 1.9Zm6.96-6.94-3.53 3.52-.8-.8-.9-.9 3.52-3.5c.08-.08.13-.18.18-.28l.06-.08c.03-.08.03-.17.05-.25l.02-.15c0-.07-.02-.14-.04-.2 0-.07 0-.14-.03-.2-.04-.1-.11-.19-.19-.28-.02-.02-.02-.05-.05-.07l-3.21-3.2c-.04-.04-.08-.05-.12-.08a1.03 1.03 0 0 0-.17-.12 1 1 0 0 0-.19-.06 1.02 1.02 0 0 0-.2-.04h-.2l-.2.05a.99.99 0 0 0-.2.09c-.03.02-.08.03-.11.06l-3.55 2.64-1.8-1.8 4.8-4.76 8.72 8.57-1.86 1.84ZM31.96 36.8h-.1a1.04 1.04 0 0 0-.6.15l-.16.13-.08.06-9.4 10.29-8.65-8.52 5.67-5.63a1.07 1.07 0 0 0-.76-1.82l-4.44.02.05-3.21 6.21.05a13.9 13.9 0 0 0 12.52 3.96c.08.06.16.12.26.17l4.82 1.92.3 1.51.36 1.77-6-.85Zm8.08.35-.63-3.11 2.9-2.16.75 1 1.14 1.51-4.16 2.76Zm7.5-5.66-1.67 1.57-1.86-2.47 1.66-1.27a1.44 1.44 0 0 1 1.88 2.18Z"/>
  <path fill="#2E2F42" d="m27.2 37.09-4.28-4.27a1.07 1.07 0 0 0-1.5 0l-4.3 4.27a1.07 1.07 0 0 0 0 1.51l4.3 4.27a1.07 1.07 0 0 0 1.5 0l4.28-4.27a1.07 1.07 0 0 0 0-1.51Zm-5.03 3.52-2.78-2.77 2.78-2.76 2.77 2.76-2.77 2.77ZM34.33 10.14l-.52 2.07c.15.04 3.48.9 3.48 4.3h2.13c0-4.03-3.33-5.93-5.1-6.37ZM39.42 18.64H37.3v2.14h2.13v-2.14Z"/>
</svg>
