<svg xmlns="http://www.w3.org/2000/svg" width="64" height="64" fill="none">
  <g clip-path="url(#a)">
    <path fill="#2E2F42" d="M62.6 30.6a30.6 30.6 0 1 0-39.93 29.17 1.35 1.35 0 0 0 1.06-.13c.27-.16.47-.42.57-.72l7.73-24.5a3.83 3.83 0 1 0-1.68-7.26L20.14 16.94a1.28 1.28 0 0 0-1.8 1.8l10.2 10.22a3.75 3.75 0 0 0 1.07 4.62l-7.36 23.35a28.09 28.09 0 1 1 21.14-.7l-.8-3.75a1.27 1.27 0 0 0-2.1-.69l-7.67 6.85a1.27 1.27 0 0 0 .46 2.17l9.8 3.13a1.27 1.27 0 0 0 1.64-1.48l-.78-3.68A30.5 30.5 0 0 0 62.59 30.6Zm-30.62-1.27a1.28 1.28 0 1 1 0 2.55 1.28 1.28 0 0 1 0-2.55Zm4.2 29.73 4.37-3.9 1.2 5.68-5.56-1.78Z"/>
    <path fill="#4D5AE5" d="M30.7 6.37v2.55a1.28 1.28 0 1 0 2.56 0V6.37a1.28 1.28 0 0 0-2.55 0ZM7.75 29.33a1.28 1.28 0 0 0 0 2.55h2.55a1.28 1.28 0 1 0 0-2.55H7.75ZM56.22 31.88a1.28 1.28 0 1 0 0-2.55h-2.55a1.28 1.28 0 0 0 0 2.55h2.55Z"/>
  </g>
  <defs>
    <clipPath id="a">
      <path fill="#fff" d="M0 0h64v64H0z"/>
    </clipPath>
  </defs>
</svg>
