<svg xmlns="http://www.w3.org/2000/svg" width="64" height="64" fill="none">
  <g clip-path="url(#a)">
    <path fill="#4D5AE5" d="M29.85 29.93h2.13v9.6h-2.13v-9.6ZM38.38 34.2h2.13v5.32h-2.13V34.2ZM21.32 37.4h2.13v2.12h-2.13V37.4ZM14.93 36.33h2.13v3.2h-2.13v-3.2Z"/>
    <path fill="#2E2F42" d="M3.2 56.58h51.17a3.2 3.2 0 0 0 3.2-3.2v-4.26a3.2 3.2 0 0 0-3.2-3.2h-1.06V19.33l6.05-5.73a3.22 3.22 0 1 0-1.5-1.53l-4.55 4.33v-2.46a3.2 3.2 0 0 0-3.2-3.2H7.46a3.2 3.2 0 0 0-3.2 3.2v31.98H3.2a3.2 3.2 0 0 0-3.2 3.2v4.26a3.2 3.2 0 0 0 3.2 3.2Zm57.57-46.9a1.07 1.07 0 1 1 0 2.13 1.07 1.07 0 0 1 0-2.14ZM6.4 13.93c0-.6.47-1.07 1.06-1.07h42.65c.59 0 1.06.48 1.06 1.07v4.47l-2.13 2.03v-4.37c0-.59-.48-1.07-1.07-1.07H9.6c-.58 0-1.06.48-1.06 1.07v26.65c0 .6.48 1.07 1.06 1.07h38.38c.6 0 1.07-.48 1.07-1.07V23.37l2.13-2.02v24.57H6.4V13.94ZM16 27.8a3.2 3.2 0 1 0 2.2 5.5l3.71 1.85c.43.22.95.12 1.27-.24l7.88-8.86 7.75 5.8c.41.3 1 .28 1.37-.08l6.73-6.38v16.27H10.66V17.14h36.25v5.32l-7.54 7.14-7.81-5.85a1.07 1.07 0 0 0-1.44.14l-7.99 8.99-2.98-1.5.04-.38a3.2 3.2 0 0 0-3.2-3.2Zm1.06 3.2a1.07 1.07 0 1 1-2.13 0 1.07 1.07 0 0 1 2.13 0Zm6.4 17.05h10.66v1.07c0 .59-.48 1.07-1.07 1.07h-8.53c-.59 0-1.07-.48-1.07-1.07v-1.07ZM2.12 49.12c0-.59.48-1.07 1.07-1.07h18.12v1.07a3.2 3.2 0 0 0 3.2 3.2h8.53a3.2 3.2 0 0 0 3.2-3.2v-1.07h18.12c.59 0 1.07.48 1.07 1.07v4.26c0 .6-.48 1.07-1.07 1.07H3.2c-.59 0-1.07-.48-1.07-1.07v-4.26Z"/>
  </g>
  <defs>
    <clipPath id="a">
      <path fill="#fff" d="M0 0h64v64H0z"/>
    </clipPath>
  </defs>
</svg>
