<svg xmlns="http://www.w3.org/2000/svg" width="16" height="16" fill="none">
  <g clip-path="url(#a)">
    <path fill="#F4F4FD" d="M16 3.04c-.6.26-1.23.43-1.89.52.68-.4 1.2-1.05 1.44-1.82-.63.38-1.33.65-2.08.8a3.29 3.29 0 0 0-5.6 2.99A9.28 9.28 0 0 1 1.12 2.1a3.3 3.3 0 0 0 1.01 4.38 3.24 3.24 0 0 1-1.48-.4v.03a3.3 3.3 0 0 0 2.63 3.23 3.27 3.27 0 0 1-1.48.05 3.31 3.31 0 0 0 3.06 2.28A6.6 6.6 0 0 1 0 13.03a9.23 9.23 0 0 0 5.03 1.47c6.04 0 9.34-5 9.34-9.33l-.01-.43A6.54 6.54 0 0 0 16 3.04Z"/>
  </g>
  <defs>
    <clipPath id="a">
      <path fill="#fff" d="M0 0h16v16H0z"/>
    </clipPath>
  </defs>
</svg>
